<svg xmlns="http://www.w3.org/2000/svg" viewBox="0 0 500 135"><defs><style>.a{fill:#fff;}</style></defs><title>Futurism-Tab-White</title><path class="a" d="M0,0V135H500V0ZM137.22,60.6l-5.29,12.15H116.39v27.69H100.85V48.62q0-7.64,3.95-10.94t11.59-3.3H139l-5.29,12.15H120.38a11.79,11.79,0,0,0-2.3.17,2,2,0,0,0-1.22.69,2.8,2.8,0,0,0-.43,1.56q0,1,0,2.78V60.6Zm41.67,27.69q-.09,1.82-.09,3.39v5.47a24.45,24.45,0,0,1-5.6,2.3,51.72,51.72,0,0,1-5.77,1.26q-2.78.43-4.95.56t-3,.13h-.43a27.26,27.26,0,0,1-10.28-1.61A13.53,13.53,0,0,1,143,95.5a14.38,14.38,0,0,1-2.6-6.29,46.17,46.17,0,0,1-.61-7.68V52.7h13.19V81.52a11.11,11.11,0,0,0,1.39,5.69q1.39,2.39,5,2.39.61,0,2.47-.17a11.4,11.4,0,0,0,3.86-1.13V52.7h13.19Zm18.34-2.13a6.6,6.6,0,0,0,2.17,2,8,8,0,0,0,2.69.91,16.84,16.84,0,0,0,2.47.22,7,7,0,0,0,2.26-.26v11.55a2.5,2.5,0,0,1-1.13.3q-.7,0-1.56,0a26,26,0,0,1-9.33-1.52,18.7,18.7,0,0,1-6.51-4,15.73,15.73,0,0,1-3.78-5.77,19.31,19.31,0,0,1-1.21-6.81V34.47h13V52.7h11.54L202,64.42h-5.64V82.73A5.74,5.74,0,0,0,197.23,86.16Zm52.09,2.13q-.09,1.82-.09,3.39v5.47a24.47,24.47,0,0,1-5.6,2.3,51.75,51.75,0,0,1-5.77,1.26q-2.78.43-4.95.56t-3,.13h-.43a27.24,27.24,0,0,1-10.28-1.61,13.53,13.53,0,0,1-5.86-4.3,14.39,14.39,0,0,1-2.6-6.29,46.17,46.17,0,0,1-.61-7.68V52.7h13.19V81.52a11.11,11.11,0,0,0,1.39,5.69q1.39,2.39,5,2.39.61,0,2.47-.17a11.38,11.38,0,0,0,3.86-1.13V52.7h13.19ZM280.23,64.5h-7a16,16,0,0,0-2.6.22,5.58,5.58,0,0,0-2.26.87,4.83,4.83,0,0,0-1.56,1.82,6.94,6.94,0,0,0-.61,3.17v29.86H253.06V70.58a18.08,18.08,0,0,1,1.3-6.86,15.27,15.27,0,0,1,4-5.64,19.68,19.68,0,0,1,6.77-3.86,30.59,30.59,0,0,1,9.63-1.52h11.46Zm21.14,35.94H288.44V52.7h12.93Zm-1.61-55.08a6.68,6.68,0,0,1-4.9,2,6.54,6.54,0,0,1-4.86-2,6.65,6.65,0,0,1-2-4.82,6.76,6.76,0,0,1,2-4.9,6.55,6.55,0,0,1,4.86-2,7,7,0,0,1,6.94,6.95A6.59,6.59,0,0,1,299.76,45.36ZM338.53,94a12,12,0,0,1-3.78,4,18,18,0,0,1-5.55,2.43,26.64,26.64,0,0,1-6.73.83,26.11,26.11,0,0,1-6.68-.83A16.87,16.87,0,0,1,310.32,98a12.41,12.41,0,0,1-3.73-4.12A11.78,11.78,0,0,1,305.2,88h12.06a4.55,4.55,0,0,0,1.39,3.26,5.07,5.07,0,0,0,3.82,1.43,6.33,6.33,0,0,0,3.52-1,3.82,3.82,0,0,0,1.78-3,5.49,5.49,0,0,0-1.65-4,18.68,18.68,0,0,0-4.17-3.13q-2.52-1.43-5.42-2.91a33.53,33.53,0,0,1-5.42-3.43,17.74,17.74,0,0,1-4.17-4.56,11.77,11.77,0,0,1-1.65-6.42,11.46,11.46,0,0,1,1.35-5.64,11.73,11.73,0,0,1,3.69-4,17.48,17.48,0,0,1,5.47-2.43,26.11,26.11,0,0,1,6.68-.82,22.62,22.62,0,0,1,7.33,1.09,14.36,14.36,0,0,1,5.25,3A13.09,13.09,0,0,1,338.22,60a14.32,14.32,0,0,1,1.08,5.56H327.85a7.43,7.43,0,0,0-.26-1.87,5.79,5.79,0,0,0-.87-1.87,4.34,4.34,0,0,0-1.65-1.39,5.8,5.8,0,0,0-2.6-.52,5.31,5.31,0,0,0-3.78,1.26,4.06,4.06,0,0,0-1.35,3.08A4.48,4.48,0,0,0,319,67.72a24.73,24.73,0,0,0,4.17,2.86q2.47,1.39,5.42,2.91A30.36,30.36,0,0,1,334.06,77a19.35,19.35,0,0,1,4.17,4.77,12.21,12.21,0,0,1,1.69,6.55A11.18,11.18,0,0,1,338.53,94Zm60.62,6.42H386.22V69.71a11.43,11.43,0,0,0-.91-4.78q-.91-2-3.69-2a3.81,3.81,0,0,0-2.34.65A3.69,3.69,0,0,0,378,65.29a8.39,8.39,0,0,0-.48,2.43q-.09,1.39-.09,2.86v.52a3.86,3.86,0,0,0,0,.56,4,4,0,0,1,0,.56v28.21h-13V71.1q0-1.65-.09-3.12a7.2,7.2,0,0,0-.61-2.6,3.92,3.92,0,0,0-1.65-1.78,6.49,6.49,0,0,0-3.21-.65q-.09,0-1,.22a2.45,2.45,0,0,0-1.48.91v36.37H343.52v-45a25.19,25.19,0,0,1,4.9-2.17q2.47-.78,4.51-1.22a29.62,29.62,0,0,1,3.56-.56q1.52-.13,2.13-.13H359a21.43,21.43,0,0,1,6.51.91A16.56,16.56,0,0,1,370.59,55a14.41,14.41,0,0,1,4.69-2.69,19,19,0,0,1,6.34-1,21.49,21.49,0,0,1,8,1.35,13.94,13.94,0,0,1,5.47,3.82,15.2,15.2,0,0,1,3.08,5.86,27.14,27.14,0,0,1,1,7.38Z"/></svg>